<svg xmlns="http://www.w3.org/2000/svg" fill-rule="evenodd" stroke-linejoin="round" stroke-miterlimit="2" clip-rule="evenodd" viewBox="0 0 97 96"><path fill="none" d="M.139 0h96v96h-96z"/><path fill="#f2d674" d="M34.968 30.257c2.867-4.311 7.77-7.155 13.331-7.155 5.584 0 10.503 2.867 13.366 7.207 4.043.884 7.074 4.487 7.074 8.793 0 4.307-3.031 7.91-7.074 8.793-2.863 4.341-7.782 7.207-13.366 7.207-5.561 0-10.464-2.843-13.331-7.154a9.09 9.09 0 0 1-1.669.154c-4.967 0-9-4.032-9-9 0-4.967 4.033-9 9-9 .57 0 1.128.054 1.669.155Z"/><path fill="#f5e097" d="M27.757 37.381c.642-1.602 1.857-2.929 3.402-3.747.726-.384.992-1.266.594-1.967-.398-.702-1.31-.959-2.036-.575-2.16 1.144-3.859 3.001-4.757 5.242-.299.746.085 1.586.857 1.875.772.289 1.641-.082 1.94-.828Z"/><path fill="#f20d0d" fill-opacity=".15" d="M46.356 25.131a16.134 16.134 0 0 0-1.712-.091c-1.965 0-3.848.355-5.589 1.005a15.921 15.921 0 0 1 9.244-2.943c5.584 0 10.503 2.867 13.366 7.207 4.043.884 7.074 4.487 7.074 8.793a8.99 8.99 0 0 1-3.732 7.296 8.954 8.954 0 0 0 1.704-5.268c0-4.02-2.642-7.429-6.284-8.582a2.43 2.43 0 0 1-1.258-.898c-2.906-3.93-7.563-6.492-12.813-6.519Z"/><path fill="#ebebeb" d="M69.739 42.102h-44.88l3.546 47.77c.159 2.135 1.723 3.776 3.6 3.776h30.588c1.877 0 3.441-1.641 3.6-3.776l3.546-47.77Z"/><path fill="#0d28f2" fill-opacity=".15" d="M69.739 42.102h-44.88l.283 3.806h33.642a5.635 5.635 0 0 1 5.618 6.052l-2.607 35.128c-.159 2.135-1.723 3.776-3.6 3.776H28.588c.49 1.631 1.844 2.784 3.417 2.784h30.588c1.877 0 3.441-1.641 3.6-3.776l3.546-47.77Z"/><path fill="#f2d674" d="M18.534 19.063a4.46 4.46 0 0 1 1.968-8.461 4.464 4.464 0 0 1 4.218 3.011 4.462 4.462 0 0 1 5.836 4.242 4.462 4.462 0 0 1-6.036 4.172 3.417 3.417 0 1 1-5.986-2.964Z"/><path fill="#f20d0d" fill-opacity=".12" d="M24.481 22.168a3.42 3.42 0 0 1-4.648 2.146 3.432 3.432 0 0 0 1.838-1.966c.102-.008 1.511-.034 1.675-.034.392 0 .772-.051 1.135-.146Zm.24-8.556a4.462 4.462 0 0 1 5.835 4.243 4.462 4.462 0 0 1-5.835 4.242 4.463 4.463 0 0 0 3.084-4.242 4.465 4.465 0 0 0-3.084-4.243Zm-5.594-2.793a4.465 4.465 0 0 1 5.593 2.793 4.46 4.46 0 0 0-1.859-.19 4.563 4.563 0 0 0-.485-.026h-.002a.78.78 0 0 1-.692-.425 4.441 4.441 0 0 0-2.555-2.152Z"/><path fill="#f2d674" d="M40.994 10.146a4.204 4.204 0 0 1 2.183-7.794 4.205 4.205 0 0 1 3.909 2.66 4.204 4.204 0 0 1 6.978 3.154 4.204 4.204 0 0 1-4.992 4.128 4.204 4.204 0 1 1-8.078-2.148Z"/><circle cx="40.984" cy="5.926" r="1.494" fill="#fff" fill-opacity=".25"/><path fill="#f20d0d" fill-opacity=".12" d="M48.32 4.257a4.204 4.204 0 0 1 5.744 3.909 4.204 4.204 0 0 1-4.992 4.128 4.206 4.206 0 0 1-5.695 3.266 4.218 4.218 0 0 0 2.395-2.44c.147-.43.551-.72 1.006-.72v-.031a4.204 4.204 0 0 0 4.202-4.203 4.206 4.206 0 0 0-2.66-3.909Zm-6.685-1.612a4.195 4.195 0 0 1 4.857 1.329 4.2 4.2 0 0 0-1.377.332 1.546 1.546 0 0 1-1.814-.44 4.023 4.023 0 0 0-1.666-1.221Z"/><path fill="#f2d674" d="M67.413 16.259a4.202 4.202 0 1 1 7.865-1.263 4.188 4.188 0 0 1 2.919.531 4.206 4.206 0 0 1 1.438 5.767 4.205 4.205 0 0 1-6.406.967 4.205 4.205 0 0 1-5.392.91 4.204 4.204 0 0 1-.424-6.912Z"/><circle cx="69.484" cy="12.844" r="1.494" fill="#fff" fill-opacity=".25"/><path fill="#f20d0d" fill-opacity=".12" d="M68.863 23.615a4.188 4.188 0 0 0 2.095-1.354 4.314 4.314 0 0 0 1.36.815 4.218 4.218 0 0 1-3.455.539ZM70 10.259a4.187 4.187 0 0 1 3.297.444 4.205 4.205 0 0 1 1.981 4.293 4.188 4.188 0 0 1 2.919.531 4.206 4.206 0 0 1 1.438 5.767 4.208 4.208 0 0 1-4.741 1.881 4.187 4.187 0 0 0 2.469-1.881 4.204 4.204 0 0 0-2.683-6.266 2.202 2.202 0 0 1-1.658-1.659c-.305-1.067-.972-2.051-1.996-2.666A4.185 4.185 0 0 0 70 10.259Z"/><path fill="#f20d0d" fill-opacity=".15" d="M35.457 37.556s1.553-1.896 3.816-1.049a1.5 1.5 0 0 0 1.052-2.809c-4.257-1.594-7.184 1.951-7.184 1.951a1.5 1.5 0 0 0 2.316 1.907zm15.89-2.104s4.072-1.992 6.756 1.555a1.5 1.5 0 1 0 2.392-1.81c-4.157-5.495-10.46-2.444-10.46-2.444a1.501 1.501 0 0 0 1.312 2.699z"/><path fill="#f32525" d="m34.474 42.029 1.706 33.977a1.5 1.5 0 0 0 2.996-.15l-1.705-33.977-2.997.15zm2.616 51.619h3.004l-.515-10.264a1.5 1.5 0 0 0-2.996.151l.507 10.113zm16.05 0h2.703c.084-.176.136-.37.146-.577l2.562-51.042-2.996-.15-2.562 51.042c-.013.26.041.508.147.727zM45.013 41.954h3v51.693h-3z"/><path fill="#ebebeb" d="M19.299 43.602h56a1.5 1.5 0 0 0 0-3h-56a1.501 1.501 0 0 0 0 3Z"/><path fill="#caceec" d="M74.211 40.602c.36.344.593.889.593 1.5 0 .612-.233 1.156-.593 1.5h1.088a1.5 1.5 0 0 0 0-3h-1.088Z"/><path fill="#fff" fill-opacity=".5" d="m25.533 48.899.75 10.112a1.5 1.5 0 0 0 2.992-.222l-.751-10.112a1.5 1.5 0 0 0-2.991.222zm1.096 15.406.206 2.779a1.502 1.502 0 0 0 1.607 1.385 1.502 1.502 0 0 0 1.385-1.607l-.206-2.779a1.501 1.501 0 0 0-2.992.222z"/><circle cx="18.944" cy="41.764" r=".834" fill="#fff" fill-opacity=".5"/><circle cx="18.366" cy="13.542" r="1.494" fill="#fff" fill-opacity=".25"/><path d="M26.19 36.441a7.54 7.54 0 0 1 8.45-4.749 1.499 1.499 0 0 0 1.526-.644c2.61-3.923 7.072-6.513 12.134-6.513 5.082 0 9.559 2.61 12.165 6.561.216.327.55.556.932.64a7.548 7.548 0 0 1 5.787 5.939 1.502 1.502 0 0 0 1.755 1.192 1.502 1.502 0 0 0 1.192-1.755 10.56 10.56 0 0 0-7.499-8.159c-3.18-4.487-8.417-7.418-14.332-7.418-5.762 0-10.88 2.781-14.082 7.072a10.851 10.851 0 0 0-.976-.045c-4.506 0-8.356 2.836-9.859 6.819a1.5 1.5 0 1 0 2.807 1.06zm-7.002 6.962h56.216a1.501 1.501 0 0 0 0-3H19.188a1.5 1.5 0 0 0 0 3zm-.105-31.317a2.98 2.98 0 0 1 4.128 1.705 1.5 1.5 0 0 0 1.882.939 2.977 2.977 0 0 1 3.895 2.832 2.977 2.977 0 0 1-4.028 2.785 1.499 1.499 0 0 0-1.985 1.035 1.93 1.93 0 0 1-3.799-.475c0-.453.156-.869.418-1.198a1.5 1.5 0 0 0-.511-2.279 2.98 2.98 0 0 1-1.664-2.672 1.5 1.5 0 0 0-3 0c0 1.792.791 3.401 2.042 4.497a4.932 4.932 0 0 0 4.644 6.581 4.93 4.93 0 0 0 4.194-2.34 5.98 5.98 0 0 0 6.689-5.934 5.98 5.98 0 0 0-6.513-5.952 5.975 5.975 0 0 0-7.719-2.214 1.5 1.5 0 0 0 1.327 2.69zm31.096 1.46a5.722 5.722 0 0 0 5.408-5.71 5.721 5.721 0 0 0-8.007-5.241A5.706 5.706 0 0 0 43.158.5a5.7 5.7 0 0 0-3.962 1.596 1.5 1.5 0 0 0 2.079 2.163 2.706 2.706 0 0 1 1.883-.759c1.148 0 2.131.714 2.529 1.721a1.498 1.498 0 0 0 2.387.575 2.703 2.703 0 0 1 1.794-.678 2.72 2.72 0 0 1 2.719 2.718 2.72 2.72 0 0 1-3.231 2.671 1.497 1.497 0 0 0-1.763 1.245 2.72 2.72 0 1 1-5.226-1.391 1.5 1.5 0 0 0-.62-1.819 2.74 2.74 0 0 1-1.101-1.282 1.5 1.5 0 0 0-2.77 1.153 5.727 5.727 0 0 0 1.388 1.992 5.72 5.72 0 0 0 5.642 6.647 5.72 5.72 0 0 0 5.273-3.506zm23.287 10.35a5.72 5.72 0 0 0 7.575-2.11 5.72 5.72 0 0 0-4.163-8.616 5.733 5.733 0 0 0-.754-2.116 1.5 1.5 0 0 0-2.574 1.542c.331.552.459 1.21.353 1.85a1.5 1.5 0 0 0 1.75 1.722 2.72 2.72 0 1 1-1.328 4.698 1.5 1.5 0 0 0-2.152.159 2.72 2.72 0 1 1-3.763-3.883 1.5 1.5 0 0 0 .406-1.878 2.719 2.719 0 0 1 1.981-3.95 1.5 1.5 0 0 0-.47-2.963 5.707 5.707 0 0 0-4.007 2.702 5.704 5.704 0 0 0-.593 4.528 5.721 5.721 0 0 0 1.413 8.604 5.725 5.725 0 0 0 6.326-.289z"/><path d="M35.404 37.775s1.561-1.906 3.837-1.054a1.5 1.5 0 0 0 1.052-2.809c-4.269-1.599-7.205 1.957-7.205 1.957a1.5 1.5 0 1 0 2.316 1.906zm15.952-2.078s4.093-2.001 6.79 1.564a1.501 1.501 0 0 0 2.392-1.81c-4.171-5.513-10.493-2.452-10.493-2.452a1.5 1.5 0 0 0 1.311 2.698zm18.958 6.424a1.5 1.5 0 0 0-1.496-1.615H24.207a1.499 1.499 0 0 0-1.495 1.615l3.73 48.302a5.5 5.5 0 0 0 5.484 5.077H61.1a5.501 5.501 0 0 0 5.484-5.077l3.73-48.302zm-3.116 1.385-3.606 46.686A2.499 2.499 0 0 1 61.1 92.5H31.926a2.5 2.5 0 0 1-2.493-2.308l-3.605-46.686h41.37z"/></svg>